<svg width="24" height="24" viewBox="0 0 24 24" fill="none" xmlns="http://www.w3.org/2000/svg">
<path d="M3.28292 10.9402C3.00202 11.2215 2.84424 11.6027 2.84424 12.0002C2.84424 12.3977 3.00202 12.779 3.28292 13.0602L8.93892 18.7192C9.22031 19.0006 9.60197 19.1587 9.99992 19.1587C10.3979 19.1587 10.7795 19.0006 11.0609 18.7192C11.3423 18.4378 11.5004 18.0562 11.5004 17.6582C11.5004 17.2603 11.3423 16.8786 11.0609 16.5972L7.96492 13.5002H19.4999C19.8977 13.5002 20.2793 13.3422 20.5606 13.0609C20.8419 12.7796 20.9999 12.398 20.9999 12.0002C20.9999 11.6024 20.8419 11.2209 20.5606 10.9396C20.2793 10.6582 19.8977 10.5002 19.4999 10.5002L7.96492 10.5002L11.0609 7.40421C11.2003 7.26488 11.3108 7.09947 11.3862 6.91742C11.4616 6.73537 11.5004 6.54026 11.5004 6.34321C11.5004 6.14616 11.4616 5.95105 11.3862 5.769C11.3108 5.58696 11.2003 5.42154 11.0609 5.28221C10.9216 5.14288 10.7562 5.03235 10.5741 4.95695C10.3921 4.88154 10.197 4.84273 9.99992 4.84273C9.80287 4.84273 9.60776 4.88154 9.42571 4.95695C9.24366 5.03235 9.07825 5.14288 8.93892 5.28221L3.28292 10.9402Z" fill="white"/>
</svg>
