<svg width="24" height="24" viewBox="0 0 24 24" fill="none" xmlns="http://www.w3.org/2000/svg">
<path d="M6.5 13.5H13.5V12.5H6.5V13.5ZM6.5 10.5H17.5V9.5H6.5V10.5ZM6.5 7.5H17.5V6.5H6.5V7.5ZM3 20.077V4.615C3 4.155 3.15433 3.771 3.463 3.463C3.771 3.15433 4.155 3 4.615 3H19.385C19.845 3 20.229 3.15433 20.537 3.463C20.8457 3.771 21 4.155 21 4.615V15.385C21 15.845 20.846 16.2293 20.538 16.538C20.2293 16.846 19.845 17 19.385 17H6.077L3 20.077ZM5.65 16H19.385C19.5383 16 19.6793 15.936 19.808 15.808C19.936 15.6793 20 15.5383 20 15.385V4.615C20 4.46167 19.936 4.32067 19.808 4.192C19.6793 4.064 19.5383 4 19.385 4H4.615C4.46167 4 4.32067 4.064 4.192 4.192C4.064 4.32067 4 4.46167 4 4.615V17.645L5.65 16Z" fill="white"/>
</svg>
