<svg width="41" height="40" viewBox="0 0 41 40" fill="none" xmlns="http://www.w3.org/2000/svg">
<path fill-rule="evenodd" clip-rule="evenodd" d="M1.92859 5.71427C1.92859 3.34733 3.84736 1.42856 6.2143 1.42856H14.7857C17.1527 1.42856 19.0714 3.34733 19.0714 5.71427V14.2857C19.0714 16.6526 17.1527 18.5714 14.7857 18.5714H6.2143C3.84736 18.5714 1.92859 16.6526 1.92859 14.2857V5.71427ZM21.9286 5.71427C21.9286 3.34733 23.8474 1.42856 26.2143 1.42856H34.7857C37.1526 1.42856 39.0714 3.34733 39.0714 5.71427V14.2857C39.0714 16.6526 37.1526 18.5714 34.7857 18.5714H26.2143C23.8474 18.5714 21.9286 16.6526 21.9286 14.2857V5.71427ZM6.2143 21.4286C3.84736 21.4286 1.92859 23.3473 1.92859 25.7143V34.2857C1.92859 36.6526 3.84736 38.5714 6.2143 38.5714H14.7857C17.1527 38.5714 19.0714 36.6526 19.0714 34.2857V25.7143C19.0714 23.3473 17.1527 21.4286 14.7857 21.4286H6.2143ZM21.9286 25.7143C21.9286 23.3473 23.8474 21.4286 26.2143 21.4286H34.7857C37.1526 21.4286 39.0714 23.3473 39.0714 25.7143V34.2857C39.0714 36.6526 37.1526 38.5714 34.7857 38.5714H26.2143C23.8474 38.5714 21.9286 36.6526 21.9286 34.2857V25.7143Z" fill="#00BF63"/>
</svg>
