<svg width="40" height="40" viewBox="0 0 40 40" fill="none" xmlns="http://www.w3.org/2000/svg">
<path fill-rule="evenodd" clip-rule="evenodd" d="M11.6443 38.176C14.1886 39.3471 17.0199 40 20 40C31.0457 40 40 31.0457 40 20C40 8.95431 31.0457 0 20 0C8.95431 0 1.99198e-05 8.95431 1.99198e-05 20C1.99198e-05 23.8325 1.07935 27.4167 2.95086 30.4609L0.0913577 38.0689C-0.0895406 38.55 0.00215103 39.0914 0.331446 39.4863C0.660737 39.8811 1.17683 40.0686 1.68279 39.9771L11.6443 38.176ZM20 9.28571C21.1835 9.28571 22.1429 10.2451 22.1429 11.4286V17.8571H28.5714C29.7549 17.8571 30.7143 18.8165 30.7143 20C30.7143 21.1835 29.7549 22.1429 28.5714 22.1429H22.1429V28.5714C22.1429 29.7549 21.1835 30.7143 20 30.7143C18.8165 30.7143 17.8571 29.7549 17.8571 28.5714V22.1429H11.4286C10.2451 22.1429 9.28571 21.1835 9.28571 20C9.28571 18.8165 10.2451 17.8571 11.4286 17.8571H17.8571V11.4286C17.8571 10.2451 18.8165 9.28571 20 9.28571Z" fill="#00BF63"/>
</svg>
