<svg width="22" height="22" viewBox="0 0 22 22" fill="none" xmlns="http://www.w3.org/2000/svg">
<path d="M21.875 10.9375C21.875 11.2856 21.7367 11.6194 21.4906 11.8656C21.2444 12.1117 20.9106 12.25 20.5625 12.25H12.25V20.5625C12.25 20.9106 12.1117 21.2444 11.8656 21.4906C11.6194 21.7367 11.2856 21.875 10.9375 21.875C10.5894 21.875 10.2556 21.7367 10.0094 21.4906C9.76328 21.2444 9.625 20.9106 9.625 20.5625V12.25H1.3125C0.964403 12.25 0.630564 12.1117 0.384422 11.8656C0.138281 11.6194 0 11.2856 0 10.9375C0 10.5894 0.138281 10.2556 0.384422 10.0094C0.630564 9.76328 0.964403 9.625 1.3125 9.625H9.625V1.3125C9.625 0.964403 9.76328 0.630564 10.0094 0.384422C10.2556 0.138281 10.5894 0 10.9375 0C11.2856 0 11.6194 0.138281 11.8656 0.384422C12.1117 0.630564 12.25 0.964403 12.25 1.3125V9.625H20.5625C20.9106 9.625 21.2444 9.76328 21.4906 10.0094C21.7367 10.2556 21.875 10.5894 21.875 10.9375Z" fill="white"/>
</svg>
