<svg width="24" height="24" viewBox="0 0 24 24" fill="none" xmlns="http://www.w3.org/2000/svg">
<path d="M3.54883 20.9378H20.4488C20.5814 20.9378 20.7086 20.8851 20.8024 20.7913C20.8961 20.6976 20.9488 20.5704 20.9488 20.4378C20.9488 20.3052 20.8961 20.178 20.8024 20.0842C20.7086 19.9905 20.5814 19.9378 20.4488 19.9378H3.54883C3.41622 19.9378 3.28904 19.9905 3.19527 20.0842C3.10151 20.178 3.04883 20.3052 3.04883 20.4378C3.04883 20.5704 3.10151 20.6976 3.19527 20.7913C3.28904 20.8851 3.41622 20.9378 3.54883 20.9378ZM9.71083 17.1798C10.1332 17.0616 10.5186 16.8379 10.8308 16.5298L20.3708 6.98978C20.6975 6.66179 20.881 6.21771 20.881 5.75478C20.881 5.29184 20.6975 4.84777 20.3708 4.51978L19.4308 3.58978C19.0982 3.27203 18.6559 3.09473 18.1958 3.09473C17.7358 3.09473 17.2935 3.27203 16.9608 3.58978L7.42083 13.1198C7.11217 13.4299 6.89132 13.8164 6.78083 14.2398L6.04083 16.9998C6.00572 17.1259 6.00482 17.259 6.03821 17.3855C6.0716 17.5121 6.13808 17.6274 6.23083 17.7198C6.37237 17.8589 6.56235 17.9378 6.76083 17.9398L9.71083 17.1798ZM10.1208 15.8198C9.93648 16.0075 9.70507 16.1422 9.45083 16.2098L8.48083 16.4698L7.48083 15.4698L7.74083 14.4998C7.81077 14.2465 7.94514 14.0157 8.13083 13.8298L8.51083 13.4598L10.5008 15.4498L10.1208 15.8198ZM11.2108 14.7398L9.22083 12.7498L15.9508 6.01978L17.9408 8.00978L11.2108 14.7398ZM19.6608 6.28978L18.6508 7.29978L16.6608 5.30978L17.6708 4.28978C17.7403 4.21999 17.8229 4.16462 17.9139 4.12684C18.0048 4.08906 18.1023 4.06961 18.2008 4.06961C18.2993 4.06961 18.3968 4.08906 18.4878 4.12684C18.5787 4.16462 18.6613 4.21999 18.7308 4.28978L19.6608 5.22978C19.8003 5.37091 19.8785 5.56135 19.8785 5.75978C19.8785 5.95821 19.8003 6.14864 19.6608 6.28978Z" fill="#FF7E60"/>
</svg>
