<svg width="62" height="62" viewBox="0 0 62 62" fill="none" xmlns="http://www.w3.org/2000/svg">
<path fill-rule="evenodd" clip-rule="evenodd" d="M27.9702 0.0652003C25.4567 0.280271 21.9672 1.13755 19.3958 2.17174C12.3984 4.98581 6.48983 10.5525 3.13827 17.4886C-0.474221 24.9646 -0.983752 33.3162 1.69172 41.1957C2.18188 42.6389 3.31371 45.1971 3.95031 46.3003C8.44282 54.086 16.0657 59.723 24.4132 61.4322C26.6558 61.8915 27.8674 62.0001 30.7461 62C37.3091 61.9997 41.9617 60.7256 47.3398 57.4561C49.9572 55.8649 53.2747 52.9025 55.2791 50.3665C59.3951 45.1593 61.717 38.8592 61.9762 32.195C62.2259 25.7751 60.5082 19.5447 57.0086 14.1769C54.9081 10.9554 52.3391 8.25141 48.9361 5.68069C48.2164 5.13695 46.2991 3.98878 45.02 3.33543C40.6246 1.09038 36.6319 0.100107 31.6097 0.00939956C30.2526 -0.0151228 28.6148 0.0100251 27.9702 0.0652003ZM28.0319 4.53002C26.7815 4.66552 24.2126 5.26131 22.7414 5.75689C18.5413 7.17193 14.9466 9.48153 11.8337 12.7651C7.94279 16.8696 5.48816 22.0139 4.70795 27.6985C4.39409 29.9852 4.50599 33.6911 4.95617 35.9159C6.67933 44.4326 11.8837 51.2416 19.5533 55.0136C24.6721 57.5312 30.3682 58.2814 35.9895 57.1782C44.0969 55.5873 51.1 50.2004 54.7369 42.7571C55.8592 40.4605 56.4631 38.5927 57.0503 35.6031C57.3498 34.0777 57.3824 33.6413 57.3865 31.099C57.3913 28.0346 57.2731 27.0423 56.5871 24.3885C55.4351 19.9317 53.1741 15.878 50.0129 12.6011C46.1226 8.56845 41.2751 5.9144 35.9001 4.87408C34.4269 4.58895 33.8225 4.54053 31.363 4.51088C29.8023 4.49198 28.3033 4.50062 28.0319 4.53002ZM29.8753 12.1057C22.3708 12.5819 15.8446 17.3208 13.1955 24.2177C11.3765 28.9534 11.4166 33.7563 13.3134 38.3556C14.3143 40.7828 15.5921 42.6884 17.4913 44.5861C21.3673 48.4593 26.7909 50.5128 32.1115 50.1218C34.919 49.9155 37.2444 49.2762 39.6337 48.0538C42.3804 46.6486 44.5774 44.7633 46.3928 42.2534C49.6885 37.6971 50.8119 32.0381 49.485 26.6768C48.5216 22.784 46.3681 19.2335 43.4626 16.7474C39.6291 13.4673 34.7397 11.797 29.8753 12.1057ZM28.3475 14.9078C25.0382 15.3963 21.817 17.0763 19.2685 19.6432C18.5809 20.3357 17.7591 21.285 17.4423 21.7531C14.4062 26.2369 13.6795 31.4568 15.3977 36.4398C17.5935 42.8081 23.5388 47.264 30.2526 47.5731C33.7034 47.732 37.2621 46.7012 40.2294 44.6832C43.053 42.763 45.3445 39.7733 46.4699 36.5414C47.4885 33.616 47.6683 30.6907 47.0243 27.5202C46.6624 25.7386 45.468 23.1435 44.2288 21.4464C43.3394 20.2284 41.3572 18.3363 40.0872 17.4931C38.8026 16.6402 36.7928 15.6734 35.6049 15.337C33.3831 14.7078 30.7555 14.5524 28.3475 14.9078ZM29.497 18.649C27.2191 19.1515 25.2785 20.9291 24.6246 23.1118C24.4108 23.8257 24.374 24.2185 24.4124 25.3789C24.4569 26.7274 24.4789 26.8243 24.9709 27.846C25.9165 29.8098 27.601 31.1129 29.7815 31.5675C31.1816 31.8595 32.4477 31.6767 33.8371 30.9822C36.2329 29.7848 37.5807 27.6681 37.5904 25.0885C37.5967 23.362 36.9124 21.7647 35.5983 20.4375C33.9416 18.7646 31.8082 18.1393 29.497 18.649ZM27.7851 33.0606C25.6732 33.5397 23.1996 34.846 21.7135 36.2669C20.516 37.4118 19.0113 39.6673 19.1498 40.1097C19.2667 40.4833 21.3918 42.4368 22.4801 43.171C25.0006 44.8714 27.325 45.664 30.2526 45.8214C31.7785 45.9035 33.8487 45.6535 35.3109 45.2107C37.5288 44.539 39.7341 43.1841 41.5943 41.3503L42.8194 40.1426L42.6468 39.7182C42.0877 38.3432 40.2189 36.1168 38.783 35.1149C37.8985 34.4978 36.0357 33.6328 34.8349 33.2815C33.767 32.9691 33.7229 32.9662 32.8982 33.1563C31.8387 33.4008 30.1442 33.4029 29.0189 33.1612C28.544 33.0591 28.1276 32.9822 28.0936 32.9902C28.0597 32.9982 27.9209 33.0299 27.7851 33.0606Z" fill="#FC7643"/>
</svg>
