<svg width="108" height="100" viewBox="0 0 108 100" fill="none" xmlns="http://www.w3.org/2000/svg">
<g clip-path="url(#clip0_1024_875)">
<path d="M43.3308 15.1812C51.8133 15.1812 58.9754 16.8617 64.817 20.2227C70.7388 23.5036 73.6996 28.6251 73.6996 35.5871H51.4932C51.4932 33.2665 50.4529 31.626 48.3723 30.6657C46.9319 29.8655 45.1313 29.4654 42.9707 29.4654C37.209 29.4654 34.3282 30.8257 34.3282 33.5465C34.3282 35.067 35.3285 36.1473 37.3291 36.7875C39.3297 37.4277 42.6106 38.1079 47.1719 38.8281C52.7736 39.6283 57.4549 40.5886 61.216 41.7089C64.9771 42.7492 68.258 44.6698 71.0589 47.4706C73.8597 50.1914 75.2601 54.0325 75.2601 58.9939C75.2601 67.0763 72.2192 72.8379 66.1374 76.2789C60.1357 79.7199 52.2534 81.4404 42.4906 81.4404C36.889 81.4404 31.6074 80.6802 26.646 79.1598C21.6845 77.5593 17.6434 75.1186 14.5225 71.8376C11.4016 68.5567 9.84111 64.3955 9.84111 59.354H32.0475V59.8342C32.1276 62.5549 33.2479 64.4755 35.4085 65.5958C37.6492 66.6361 40.0099 67.1563 42.4906 67.1563C49.1325 67.1563 52.4535 65.5958 52.4535 62.4749C52.4535 60.8745 51.4132 59.7141 49.3326 58.9939C47.252 58.2737 43.851 57.5135 39.1296 56.7133C33.448 55.753 28.7666 54.7127 25.0855 53.5923C21.4845 52.472 18.3236 50.5915 15.6028 47.9507C12.882 45.2299 11.5216 41.4688 11.5216 36.6674C11.5216 28.9052 14.4424 23.3836 20.2841 20.1026C26.2059 16.8217 33.8881 15.1812 43.3308 15.1812Z" fill="#C1FF72"/>
<circle cx="90.2438" cy="70.2438" r="10.2437" fill="#C1FF72"/>
</g>
<defs>
<clipPath id="clip0_1024_875">
<rect width="108" height="100" fill="white"/>
</clipPath>
</defs>
</svg>
