<svg width="46" height="45" viewBox="0 0 46 45" fill="none" xmlns="http://www.w3.org/2000/svg">
<rect width="46" height="44.3571" rx="16.4286" fill="#FF9268"/>
<path d="M24.7415 8.6787C24.2795 8.21722 23.6531 7.95801 23.0001 7.95801C22.3471 7.95801 21.7207 8.21722 21.2587 8.6787L11.9618 17.9707C11.4995 18.433 11.2397 19.06 11.2397 19.7138C11.2397 20.3675 11.4995 20.9945 11.9618 21.4568C12.424 21.9191 13.051 22.1788 13.7048 22.1788C14.3586 22.1788 14.9856 21.9191 15.4479 21.4568L20.5358 16.3706V35.3209C20.5358 35.9745 20.7955 36.6013 21.2576 37.0634C21.7197 37.5256 22.3465 37.7852 23.0001 37.7852C23.6537 37.7852 24.2805 37.5256 24.7426 37.0634C25.2048 36.6013 25.4644 35.9745 25.4644 35.3209V16.3706L30.5507 21.4568C30.7796 21.6857 31.0513 21.8673 31.3504 21.9912C31.6495 22.1151 31.97 22.1788 32.2937 22.1788C32.6175 22.1788 32.938 22.1151 33.2371 21.9912C33.5362 21.8673 33.8079 21.6857 34.0368 21.4568C34.2657 21.2279 34.4473 20.9562 34.5712 20.6571C34.6951 20.358 34.7588 20.0375 34.7588 19.7138C34.7588 19.3901 34.6951 19.0695 34.5712 18.7704C34.4473 18.4713 34.2657 18.1996 34.0368 17.9707L24.7415 8.6787Z" fill="white"/>
</svg>
