<svg xmlns="http://www.w3.org/2000/svg" xmlns:xlink="http://www.w3.org/1999/xlink" width="100" zoomAndPan="magnify" viewBox="0 0 75 74.999997" height="100" preserveAspectRatio="xMidYMid meet" version="1.0"><defs><clipPath id="3df29f2b1c"><path d="M 3.75 6.582031 L 71.25 6.582031 L 71.25 67.332031 L 3.75 67.332031 Z M 3.75 6.582031 " clip-rule="nonzero"/></clipPath></defs><rect x="-7.5" width="90" fill="#ffffff" y="-7.5" height="89.999996" fill-opacity="1"/><rect x="-7.5" width="90" fill="#ffffff" y="-7.5" height="89.999996" fill-opacity="1"/><g clip-path="url(#3df29f2b1c)"><path fill="#003b1f" d="M 4.03125 65.808594 C 3.792969 66.179688 3.804688 66.65625 4.066406 67.015625 C 4.273438 67.308594 4.609375 67.484375 4.957031 67.484375 C 5.03125 67.484375 5.109375 67.484375 5.195312 67.460938 L 15.183594 65.246094 C 18.066406 66.710938 21.292969 67.484375 24.53125 67.484375 C 35.804688 67.484375 44.988281 58.398438 45.164062 47.15625 C 50.054688 48.484375 55.414062 47.984375 59.957031 45.679688 L 69.945312 47.886719 C 70.023438 47.90625 70.097656 47.90625 70.183594 47.90625 C 70.53125 47.90625 70.871094 47.734375 71.074219 47.441406 C 71.324219 47.082031 71.335938 46.601562 71.109375 46.234375 L 67.03125 39.789062 C 69.773438 36.210938 71.273438 31.789062 71.273438 27.246094 C 71.273438 15.851562 62.011719 6.59375 50.621094 6.59375 C 39.226562 6.59375 30.164062 15.679688 29.988281 26.90625 C 28.25 26.429688 26.425781 26.15625 24.53125 26.15625 C 13.121094 26.167969 3.859375 35.429688 3.859375 46.820312 C 3.859375 51.351562 5.359375 55.777344 8.109375 59.363281 Z M 50.597656 8.777344 C 60.78125 8.777344 69.074219 17.070312 69.074219 27.253906 C 69.074219 31.550781 67.574219 35.734375 64.835938 39.027344 C 64.53125 39.386719 64.5 39.90625 64.75 40.300781 L 67.847656 45.191406 L 60.023438 43.460938 C 59.773438 43.40625 59.5 43.441406 59.273438 43.558594 C 54.933594 45.863281 49.707031 46.308594 45.054688 44.851562 C 44.316406 37.015625 39.164062 30.441406 32.121094 27.636719 C 32.121094 27.503906 32.109375 27.375 32.109375 27.246094 C 32.109375 17.058594 40.402344 8.765625 50.585938 8.765625 Z M 6.03125 46.820312 C 6.03125 36.636719 14.324219 28.34375 24.511719 28.34375 C 34.695312 28.34375 42.988281 36.636719 42.988281 46.820312 C 42.988281 57.003906 34.695312 65.300781 24.511719 65.300781 C 21.488281 65.300781 18.488281 64.550781 15.824219 63.125 C 15.664062 63.039062 15.488281 62.996094 15.316406 62.996094 C 15.238281 62.996094 15.164062 62.996094 15.074219 63.015625 L 7.25 64.746094 L 10.347656 59.851562 C 10.597656 59.453125 10.566406 58.941406 10.273438 58.582031 C 7.53125 55.277344 6.03125 51.09375 6.03125 46.800781 Z M 6.03125 46.820312 " fill-opacity="1" fill-rule="nonzero"/></g><path fill="#003b1f" d="M 41.902344 19.648438 L 59.292969 19.648438 L 59.292969 21.820312 L 41.902344 21.820312 Z M 41.902344 19.648438 " fill-opacity="1" fill-rule="nonzero"/><path fill="#003b1f" d="M 41.902344 26.167969 L 59.292969 26.167969 L 59.292969 28.34375 L 41.902344 28.34375 Z M 41.902344 26.167969 " fill-opacity="1" fill-rule="nonzero"/><path fill="#003b1f" d="M 46.25 32.691406 L 59.292969 32.691406 L 59.292969 34.863281 L 46.25 34.863281 Z M 46.25 32.691406 " fill-opacity="1" fill-rule="nonzero"/><path fill="#003b1f" d="M 17.621094 48.996094 L 21.554688 48.996094 L 22.695312 53.34375 L 24.945312 53.34375 L 21.726562 41.113281 C 21.597656 40.636719 21.175781 40.300781 20.675781 40.300781 L 18.5 40.300781 C 18.011719 40.300781 17.574219 40.636719 17.445312 41.113281 L 14.226562 53.34375 L 16.476562 53.34375 Z M 19.335938 42.472656 L 19.835938 42.472656 L 20.976562 46.820312 L 18.195312 46.820312 Z M 19.335938 42.472656 " fill-opacity="1" fill-rule="nonzero"/><path fill="#003b1f" d="M 34.792969 51.167969 L 32.074219 51.167969 L 32.074219 42.472656 L 34.792969 42.472656 L 34.792969 40.300781 L 27.183594 40.300781 L 27.183594 42.472656 L 29.902344 42.472656 L 29.902344 51.167969 L 27.183594 51.167969 L 27.183594 53.34375 L 34.792969 53.34375 Z M 34.792969 51.167969 " fill-opacity="1" fill-rule="nonzero"/></svg>